<?xml version="1.0" encoding="UTF-8"?> <svg xmlns="http://www.w3.org/2000/svg" width="150" height="150" viewBox="0 0 150 150" fill="none"><path d="M75 0C33.5793 0 0 33.5793 0 75C0 116.421 33.5793 150 75 150C116.421 150 150 116.421 150 75C150 33.5793 116.421 0 75 0ZM75 146.773C40.8485 146.773 13.1691 114.639 13.1691 75C13.1691 35.3614 40.8485 3.21723 75 3.21723C109.151 3.21723 136.831 35.3521 136.831 74.9906C136.831 114.629 109.151 146.764 75 146.764V146.773Z" fill="white"></path><path d="M110.399 69.503L110.287 68.7432C106.957 46.926 88.4788 36.4114 72.7865 37.5839C69.5036 37.8277 66.3896 38.4187 63.4631 39.3097C48.1367 44.4779 38.682 58.9977 39.6669 77.3819C40.1734 88.0185 44.1503 97.0511 51.1476 103.504C54.4774 106.581 58.3231 108.898 62.5627 110.445C66.6428 111.796 71.0419 112.499 75.6286 112.499C76.8292 112.499 78.0392 112.453 79.2585 112.359C92.1368 111.346 100.344 106.525 106.713 96.2069L107.491 94.9501L103.167 94.8L102.905 95.2033C95.9638 105.868 88.5632 107.866 82.8791 108.419C70.8356 109.573 58.792 103.42 54.7213 91.7516C53.9146 89.5755 53.7176 87.8871 53.4456 85.0076L109.658 69.7187L110.399 69.5217V69.503ZM94.0784 63.3686C92.6433 67.5051 88.188 70.591 80.7968 72.5514L52.9485 81.0587C52.7046 77.1568 52.7703 73.9583 52.7703 73.9583C53.3893 52.0473 64.4855 41.5046 74.1653 40.773C79.8213 40.3321 85.2803 42.9022 89.4542 47.9297C92.5683 52.0661 95.8981 58.0973 94.0691 63.3686H94.0784Z" fill="white"></path></svg> 