<?xml version="1.0" encoding="UTF-8"?> <svg xmlns="http://www.w3.org/2000/svg" width="627" height="90" viewBox="0 0 627 90" fill="none"><path d="M496.255 33.4496C496.255 28.4361 499.664 24.7441 504.365 24.7441C509.066 24.7441 512.163 28.1537 512.163 33.1369C512.163 33.5404 512.163 33.954 512.102 34.4482H499.664C500.007 37.7065 502.045 39.2398 504.648 39.2398C507.059 39.2398 508.622 38.2714 509.53 36.2035L511.941 38.3016C510.408 40.8739 507.553 42.034 504.577 42.034C499.503 42.034 496.245 38.4933 496.245 33.4496H496.255ZM508.693 32.0071V31.9768C508.693 29.2532 506.998 27.5283 504.305 27.5283C502.015 27.5283 500.139 29.001 499.705 32.0071H508.693Z" fill="#1C3B42"></path><path d="M512.859 25.2793H516.46L521.443 37.8381L526.427 25.2793H529.937L523.168 41.5705H519.688L512.859 25.2793Z" fill="#1C3B42"></path><path d="M530.37 33.4496C530.37 28.4361 533.78 24.7441 538.481 24.7441C543.181 24.7441 546.278 28.1537 546.278 33.1369C546.278 33.5404 546.278 33.954 546.218 34.4482H533.78C534.123 37.7065 536.161 39.2398 538.763 39.2398C541.174 39.2398 542.737 38.2714 543.645 36.2035L546.056 38.3016C544.523 40.8739 541.668 42.034 538.692 42.034C533.618 42.034 530.36 38.4933 530.36 33.4496H530.37ZM542.808 32.0071V31.9768C542.808 29.2532 541.113 27.5283 538.42 27.5283C536.13 27.5283 534.254 29.001 533.82 32.0071H542.808Z" fill="#1C3B42"></path><path d="M549.163 25.2794H552.421V27.539C553.551 25.693 555.276 24.7549 557.717 24.7549C561.662 24.7549 563.861 27.2969 563.861 31.5235V41.5807H560.602V32.149C560.602 29.1732 559.382 27.7307 556.84 27.7307C554.116 27.7307 552.421 29.6675 552.421 32.7441V41.5807H549.163V25.2895V25.2794Z" fill="#1C3B42"></path><path d="M568.804 36.9602V28.1236H565.888V25.2689H568.804V21.6374L572.062 19.166V25.279H576.702V28.1337H572.062V36.5265C572.062 38.6247 572.879 38.9979 574.564 38.9979C575.068 38.9979 575.915 38.9071 576.41 38.776V41.661C575.905 41.8526 574.594 41.9737 574.09 41.9737C570.64 41.9737 568.794 40.5614 568.794 36.9602H568.804Z" fill="#1C3B42"></path><path d="M496.255 65.7207L499.422 64.3791C499.543 66.8505 501.268 68.0408 503.709 68.0408C505.616 68.0408 507.089 67.3549 507.089 65.8518C507.089 62.2204 496.749 65.0045 496.749 58.4578C496.749 55.5122 499.785 53.3838 503.387 53.3838C507.24 53.3838 509.903 55.2601 510.367 58.1148L507.3 59.2748C507.139 57.2069 505.737 55.9863 503.387 55.9863C501.319 55.9863 500.098 56.9547 500.098 58.2762C500.098 61.8471 510.589 59.2143 510.589 65.64C510.589 68.9285 507.734 70.6837 503.699 70.6837C499.664 70.6837 496.779 68.7066 496.245 65.7308L496.255 65.7207Z" fill="#1C3B42"></path><path d="M512.294 62.0287C512.294 56.9245 516.087 53.3838 521.03 53.3838C525.972 53.3838 529.836 56.9245 529.836 62.0287C529.836 67.133 526.013 70.6736 521.03 70.6736C516.046 70.6736 512.294 67.133 512.294 62.0287ZM526.457 62.0287C526.457 58.5788 524.197 56.3596 521.04 56.3596C517.882 56.3596 515.653 58.5788 515.653 62.0287C515.653 65.4786 517.973 67.6676 521.04 67.6676C524.106 67.6676 526.457 65.4786 526.457 62.0287Z" fill="#1C3B42"></path><path d="M532.589 47.1797H535.848V70.1992H532.589V47.1797Z" fill="#1C3B42"></path><path d="M539.479 64.3077V53.9075H542.737V63.8638C542.737 66.5269 543.928 67.8383 546.278 67.8383C549.032 67.8383 550.605 65.9318 550.605 62.7946V53.8975H553.864V70.1887H550.605V68.0905C549.476 69.9062 547.69 70.6628 545.562 70.6628C541.769 70.6628 539.489 68.2821 539.489 64.3077H539.479Z" fill="#1C3B42"></path><path d="M558.968 65.5989V56.7623H556.053V53.9076H558.968V50.2761L562.226 47.8047V53.9177H566.867V56.7724H562.226V65.1651C562.226 67.2633 563.044 67.6366 564.728 67.6366C565.233 67.6366 566.08 67.5458 566.574 67.4146V70.2996C566.07 70.4913 564.758 70.6124 564.254 70.6124C560.804 70.6124 558.958 69.2001 558.958 65.5989H558.968Z" fill="#1C3B42"></path><path d="M569.338 47.1797H573V50.7506H569.338V47.1797ZM569.519 53.908H572.778V70.1992H569.519V53.908Z" fill="#1C3B42"></path><path d="M575.441 62.0287C575.441 56.9245 579.234 53.3838 584.177 53.3838C589.119 53.3838 592.983 56.9245 592.983 62.0287C592.983 67.133 589.16 70.6736 584.177 70.6736C579.193 70.6736 575.441 67.133 575.441 62.0287ZM589.604 62.0287C589.604 58.5788 587.344 56.3596 584.187 56.3596C581.029 56.3596 578.8 58.5788 578.8 62.0287C578.8 65.4786 581.12 67.6676 584.187 67.6676C587.253 67.6676 589.604 65.4786 589.604 62.0287Z" fill="#1C3B42"></path><path d="M595.585 53.9083H598.844V56.1679C599.974 54.3219 601.698 53.3838 604.14 53.3838C608.084 53.3838 610.283 55.9258 610.283 60.1525V70.2096H607.025V60.7779C607.025 57.8021 605.804 56.3596 603.262 56.3596C600.538 56.3596 598.844 58.2964 598.844 61.373V70.2096H595.585V53.9184V53.9083Z" fill="#1C3B42"></path><path d="M612.623 65.7207L615.79 64.3791C615.911 66.8505 617.636 68.0408 620.078 68.0408C621.984 68.0408 623.457 67.3549 623.457 65.8518C623.457 62.2204 613.117 65.0045 613.117 58.4578C613.117 55.5122 616.153 53.3838 619.755 53.3838C623.608 53.3838 626.271 55.2601 626.735 58.1148L623.669 59.2748C623.507 57.2069 622.105 55.9863 619.755 55.9863C617.687 55.9863 616.466 56.9547 616.466 58.2762C616.466 61.8471 626.957 59.2143 626.957 65.64C626.957 68.9285 624.102 70.6837 620.067 70.6837C616.032 70.6837 613.147 68.7066 612.613 65.7308L612.623 65.7207Z" fill="#1C3B42"></path><path d="M432.412 46.039V88.9711H421.507V44.2334C421.507 32.9254 414.073 25.9046 403.814 25.9046C391.124 25.9046 383.306 38.0095 383.306 55.3397V88.961H372.533V25.9853L383.306 22.7674V31.1702C383.336 32.5118 383.679 35.0135 385.616 32.2395C390.64 24.5932 397.287 20.417 406.649 20.417C421.659 20.417 432.412 30.4641 432.412 46.029V46.039Z" fill="#1C3B42"></path><path d="M285.004 46.1602V88.9712H274.251V44.3545C274.251 33.0869 266.837 26.0862 256.608 26.0862C252.14 26.0862 248.024 28.6282 244.705 31.4628C238.612 36.5569 237.22 44.6269 237.22 55.4305V88.9611H226.336V44.3444C226.336 33.0768 217.873 26.0761 207.644 26.0761C194.994 26.0761 187.207 38.1407 187.207 55.4204V88.951H176.454V26.1568L187.207 22.949V33.2382C187.207 34.489 187.459 35.639 189.678 32.2698C189.739 32.1891 189.769 32.1487 189.819 32.0781C189.85 32.0277 189.89 31.9873 189.92 31.9268C189.971 31.8663 190.011 31.8058 190.041 31.7654C195.357 24.3612 201.511 20.5986 210.468 20.5986C222.694 20.5986 232.59 27.448 235.314 38.524C239.742 27.1857 247.731 20.5986 259.302 20.5986H259.423C274.312 20.5986 284.984 30.6255 284.974 46.1501L285.004 46.1602Z" fill="#1C3B42"></path><path d="M76.7391 90.0003H87.341V0.847656L76.7391 4.00502V90.0003Z" fill="#1C3B42"></path><path d="M460.162 30.1614V26.2777H478.209V21.7888H460.152V0L449.571 3.15736L449.49 21.7888H438.091V26.2777H449.49V67.9085C449.49 83.0094 457.913 89.5562 469.271 89.8386C472.741 89.9193 475.687 89.4452 478.189 88.497V84.3107C476.575 84.8453 474.799 85.0673 472.862 85.0673C463.774 85.0673 460.142 79.1863 460.142 68.0901V30.1614H460.162Z" fill="#1C3B42"></path><path d="M64.9976 50.0529L64.8867 49.3569C61.8302 29.3334 44.8631 19.6797 30.4684 20.749C27.4522 20.9709 24.5975 21.5156 21.9143 22.3327C7.8423 27.0839 -0.842977 40.4194 0.0648913 57.2856C0.528913 67.0502 4.18056 75.3421 10.6062 81.2634C13.6627 84.0879 17.1933 86.2163 21.0871 87.6387C24.8295 88.8794 28.8746 89.525 33.081 89.525C34.1806 89.525 35.2902 89.4847 36.4099 89.3939C48.2323 88.4658 55.7677 84.0375 61.6083 74.5755L62.3245 73.4154L58.35 73.2742L58.1079 73.6474C51.7428 83.4322 44.9438 85.2681 39.7286 85.7725C28.6728 86.8317 17.617 81.1827 13.8847 70.4699C13.1483 68.4726 12.9667 66.9292 12.7145 64.2762L64.3218 50.2345L65.0077 50.0529H64.9976ZM50.0178 44.4241C48.7065 48.217 44.611 51.0516 37.8322 52.8572L12.2707 60.6649C12.0488 57.0839 12.1093 54.1383 12.1093 54.1383C12.6742 34.024 22.8625 24.3502 31.7495 23.6743C36.9445 23.2708 41.9479 25.6212 45.7811 30.2513C48.6358 34.0442 51.6923 39.5923 50.0178 44.4241Z" fill="#1C3B42"></path><path d="M164.843 50.0529L164.732 49.3569C161.676 29.3334 144.709 19.6797 130.314 20.749C127.298 20.9709 124.443 21.5156 121.76 22.3327C107.698 27.0738 99.0127 40.4093 99.9206 57.2755C100.385 67.0401 104.036 75.332 110.462 81.2533C113.518 84.0778 117.049 86.2063 120.943 87.6286C124.685 88.8693 128.73 89.5149 132.937 89.5149C134.036 89.5149 135.146 89.4746 136.266 89.3838C148.088 88.4558 155.623 84.0274 161.464 74.5654L162.18 73.4053L158.206 73.2641L157.964 73.6373C151.598 83.4221 144.8 85.258 139.584 85.7624C128.529 86.8216 117.473 81.1726 113.74 70.4598C113.004 68.4625 112.822 66.9191 112.57 64.2661L164.177 50.2244L164.863 50.0428L164.843 50.0529ZM149.863 44.4241C148.552 48.217 144.457 51.0516 137.678 52.8572L112.116 60.6649C111.894 57.0839 111.955 54.1383 111.955 54.1383C112.52 34.024 122.708 24.3502 131.595 23.6743C136.79 23.2708 141.793 25.6212 145.627 30.2513C148.481 34.0442 151.538 39.5923 149.863 44.4241Z" fill="#1C3B42"></path><path d="M361.134 50.0529L361.023 49.3569C357.967 29.3334 341 19.6797 326.605 20.749C323.589 20.9709 320.734 21.5156 318.051 22.3327C303.989 27.0738 295.304 40.4093 296.212 57.2755C296.676 67.0401 300.327 75.332 306.753 81.2533C309.81 84.0778 313.34 86.2063 317.234 87.6286C320.976 88.8693 325.021 89.5149 329.228 89.5149C330.327 89.5149 331.437 89.4746 332.557 89.3838C344.379 88.4558 351.914 84.0274 357.755 74.5654L358.471 73.4053L354.497 73.2641L354.255 73.6373C347.89 83.4221 341.091 85.258 335.875 85.7624C324.82 86.8216 313.764 81.1726 310.031 70.4598C309.295 68.4625 309.114 66.9191 308.861 64.2661L360.469 50.2244L361.155 50.0428L361.134 50.0529ZM346.165 44.4241C344.853 48.217 340.758 51.0516 333.979 52.8572L308.418 60.6649C308.196 57.0839 308.256 54.1383 308.256 54.1383C308.821 34.024 319.009 24.3502 327.896 23.6743C333.091 23.2708 338.095 25.6212 341.928 30.2513C344.783 34.0442 347.839 39.5923 346.165 44.4241Z" fill="#1C3B42"></path></svg> 